<svg xmlns="http://www.w3.org/2000/svg" viewBox="0 0 572.64 79.592"><defs><style>.cls-1{fill:#231815;}.cls-2{fill:#fff;}.cls-3{fill:#853890;}.cls-4{fill:#9f5fa3;}</style></defs><g id="レイヤー_1" data-name="レイヤー 1"><path class="cls-1" d="M17.179,71.689A11.338,11.338,0,0,1,6.223,57.43l11.03-41.384A11.352,11.352,0,0,1,28.209,7.627H57.6a19.436,19.436,0,0,1,6.2.949,11.32,11.32,0,0,1,4.507-.949L104.157,7.6a11.3,11.3,0,0,1,3.216.468,23.939,23.939,0,0,1,12.655-3.6,21.019,21.019,0,0,1,7,1.15,23.761,23.761,0,0,1,7.328-1.15,19.63,19.63,0,0,1,11.568,3.471,11.236,11.236,0,0,1,2.613-.31h12.692a11.32,11.32,0,0,1,5.207,1.27,11.327,11.327,0,0,1,5.221-1.27h12.691a11.149,11.149,0,0,1,2.173.214,10.993,10.993,0,0,1,2.153-.214h35.783a11.407,11.407,0,0,1,8.989,4.429,11.292,11.292,0,0,1,1.853,3.618h14.941a18.037,18.037,0,0,1,5.446.8,11.23,11.23,0,0,1,4.151-.8H283.47a18.279,18.279,0,0,1,5.126.7,11.293,11.293,0,0,1,3.9-.7h10.6a11.341,11.341,0,0,1,3.882.682,11.335,11.335,0,0,1,3.881-.682h10.571a11.15,11.15,0,0,1,2.158.211,11.01,11.01,0,0,1,2.139-.211h10.4a11.329,11.329,0,0,1,4.068.761,11.329,11.329,0,0,1,4.068-.761h6a11.353,11.353,0,0,1,10.85-8.047h29.365c7.77,0,12.4,3.689,14.684,8.047H422.7a18.035,18.035,0,0,1,5.445.8,11.235,11.235,0,0,1,4.152-.8h23.635a18.267,18.267,0,0,1,5.125.7,11.3,11.3,0,0,1,3.9-.7h28.935a11.15,11.15,0,0,1,2.158.211,11.01,11.01,0,0,1,2.139-.211h23.637a18.035,18.035,0,0,1,5.445.8,11.229,11.229,0,0,1,4.15-.8h19.768a11.34,11.34,0,0,1,10.957,14.257L560.7,35.36a11.315,11.315,0,0,1,5.71,12.985l-3.239,12.069a14.781,14.781,0,0,1-14.7,11.275Z"/><path class="cls-1" d="M548.471,66.019a9.172,9.172,0,0,0,9.227-7.074l3.238-12.07a5.669,5.669,0,0,0-5.475-7.138H553.67l3-11.265a5.671,5.671,0,0,0-5.479-7.128H531.424a5.644,5.644,0,0,0-3.78,1.468,11.039,11.039,0,0,0-5.816-1.468H498.191a5.512,5.512,0,0,1-4.3,0H464.959a5.653,5.653,0,0,0-3.555,1.264,11.272,11.272,0,0,0-5.469-1.264H432.3a5.645,5.645,0,0,0-3.781,1.469,11.031,11.031,0,0,0-5.817-1.469H404.367a14.659,14.659,0,0,0-3.183.339c-.5-4.117-3.494-8.386-10.711-8.386H361.107a5.669,5.669,0,0,0-5.478,4.209l-1.022,3.838H344.263a5.668,5.668,0,0,0-4.069,1.721,5.66,5.66,0,0,0-4.068-1.721h-10.4a5.643,5.643,0,0,0-2.138.436,5.661,5.661,0,0,0-2.158-.436H310.858a5.666,5.666,0,0,0-3.882,1.537,5.668,5.668,0,0,0-3.881-1.537h-10.6a5.65,5.65,0,0,0-3.554,1.264,11.279,11.279,0,0,0-5.47-1.264H259.834a5.645,5.645,0,0,0-3.78,1.469,11.031,11.031,0,0,0-5.817-1.469H231.9a15.144,15.144,0,0,0-2.258.166l.289-1.087a5.67,5.67,0,0,0-5.48-7.126H188.671a5.625,5.625,0,0,0-2.153.443,5.641,5.641,0,0,0-2.173-.443H171.654a5.67,5.67,0,0,0-4.728,2.54l-.53.8a5.673,5.673,0,0,0-5.171-3.342H148.534a5.644,5.644,0,0,0-3.607,1.312,13.5,13.5,0,0,0-10.574-4.473,18.132,18.132,0,0,0-7.448,1.589,14.774,14.774,0,0,0-6.877-1.589,18.963,18.963,0,0,0-11.972,4.358c-.067.053-.126.11-.192.163a5.664,5.664,0,0,0-3.707-1.389L68.313,13.3a5.66,5.66,0,0,0-4.062,1.728A12.007,12.007,0,0,0,57.6,13.3H28.209a5.668,5.668,0,0,0-5.478,4.209L11.7,58.89a5.668,5.668,0,0,0,5.478,7.129Z"/><path class="cls-2" d="M16.592,61.936a4.252,4.252,0,0,1-4.109-5.347l11.03-41.384a4.252,4.252,0,0,1,4.108-3.156H57.015c6.895,0,9.352,4.259,9.352,8.246a13.256,13.256,0,0,1-.487,3.42L58.2,52.432c-1.63,6.127-5.979,9.5-12.244,9.5Zm24.9-31.612a3.707,3.707,0,0,0-2.4.989A4.553,4.553,0,0,0,37.4,33.78a2.946,2.946,0,0,0-.114.741.421.421,0,0,0,.078.31,1,1,0,0,0,.117.147,1.305,1.305,0,0,0,.481.062,3.931,3.931,0,0,0,2.421-1,4.54,4.54,0,0,0,1.694-2.461,3.022,3.022,0,0,0,.113-.74.54.54,0,0,0-.108-.379C42.046,30.412,41.98,30.324,41.487,30.324Z"/><path class="cls-2" d="M56.7,61.936a4.252,4.252,0,0,1-4.108-5.347L63.621,15.205a4.251,4.251,0,0,1,4.1-3.156l35.843-.029a4.25,4.25,0,0,1,4.106,5.356l-2.636,9.8a4.252,4.252,0,0,1-4.106,3.148H95.976a4.205,4.205,0,0,1,.593.628,4.252,4.252,0,0,1,.739,3.684l-1.833,6.9a4.251,4.251,0,0,1-1.333,2.128h.976a4.252,4.252,0,0,1,4.108,5.348L96.62,58.78a4.254,4.254,0,0,1-4.109,3.156Z"/><path class="cls-2" d="M96.808,61.936a4.251,4.251,0,0,1-4.107-5.35l3.38-12.645a4.253,4.253,0,0,1,4.108-3.154h9.073l-5.652-6.719a4.156,4.156,0,0,1-.294-.394,12.588,12.588,0,0,1-2.108-7.056,15.247,15.247,0,0,1,.547-3.948,18.386,18.386,0,0,1,6.594-9.731,17.583,17.583,0,0,1,11.092-4.052,13.158,13.158,0,0,1,6.819,1.766,16.794,16.794,0,0,1,7.506-1.766,12.008,12.008,0,0,1,12.56,12.069,15.164,15.164,0,0,1-.547,3.92,19.006,19.006,0,0,1-6.453,9.719c-.072.06-.147.119-.223.174l-8.273,6.018H136a4.253,4.253,0,0,1,4.108,5.35l-3.381,12.645a4.251,4.251,0,0,1-4.107,3.154Z"/><path class="cls-2" d="M161.268,61.936a4.252,4.252,0,0,1-4.108-5.347l.873-3.274h-4.091l-1.457,5.465a4.252,4.252,0,0,1-4.109,3.156H136.917a4.252,4.252,0,0,1-4.109-5.347l11.03-41.384a4.252,4.252,0,0,1,4.109-3.156h12.691a4.25,4.25,0,0,1,4.213,3.68l.254,1.873,2.416-3.649a4.252,4.252,0,0,1,3.545-1.9h12.692a4.252,4.252,0,0,1,4.108,5.347L176.836,58.78a4.251,4.251,0,0,1-4.108,3.156Z"/><path class="cls-2" d="M177.025,61.936a4.252,4.252,0,0,1-4.108-5.349L183.975,15.2a4.253,4.253,0,0,1,4.108-3.154h35.783a4.251,4.251,0,0,1,4.109,5.344L223.85,32.912a4.252,4.252,0,0,1-4.109,3.16h-.662a4.247,4.247,0,0,1,1.331,4.321l-2.235,8.334a4.252,4.252,0,0,1-4.107,3.151h-9.619l-1.827,6.9a4.251,4.251,0,0,1-4.11,3.163Z"/><path class="cls-2" d="M222.433,61.936c-6.247,0-8.463-4.04-8.463-7.5a11.735,11.735,0,0,1,.433-3.031l6.128-22.981a10.546,10.546,0,0,1,10.784-8.33H249.65c6.247,0,8.463,4.04,8.463,7.5a11.706,11.706,0,0,1-.433,3.032l-6.1,22.975c-1.44,5.305-5.378,8.334-10.813,8.334Zm15.332-25.158a3.237,3.237,0,0,0-.692.437,2.864,2.864,0,0,0-.909,1.136,3.212,3.212,0,0,0,.707-.44A2.7,2.7,0,0,0,237.765,36.778Z"/><path class="cls-2" d="M274.746,61.936a4.252,4.252,0,0,1-3.753-2.253l-1.051-1.974-.282,1.064a4.252,4.252,0,0,1-4.11,3.163H250.366a4.253,4.253,0,0,1-4.109-5.346l8.881-33.337a4.252,4.252,0,0,1,4.109-3.158h23.635c6.247,0,8.464,4.04,8.464,7.5a11.706,11.706,0,0,1-.434,3.034l-4.293,16.082a8.066,8.066,0,0,1-3.025,4.556l2.354,4.418a4.252,4.252,0,0,1-3.753,6.251Zm-7.8-22.857a3.32,3.32,0,0,0-.709.445,2.683,2.683,0,0,0-.892,1.128,3.1,3.1,0,0,0,.691-.433A2.87,2.87,0,0,0,266.948,39.079Z"/><path class="cls-2" d="M288.326,61.936c-6.247,0-8.464-4.04-8.464-7.5A11.717,11.717,0,0,1,280.3,51.4l7.5-28.15a4.252,4.252,0,0,1,4.109-3.158h10.6a4.255,4.255,0,0,1,3.882,2.517,4.253,4.253,0,0,1,3.882-2.517h10.571a4.254,4.254,0,0,1,4.109,5.347l-7.506,28.164a10.545,10.545,0,0,1-10.784,8.33Z"/><path class="cls-2" d="M335.74,61.936a4.252,4.252,0,0,1-4.109-5.348l.413-1.549h-1.225l-1,3.741a4.252,4.252,0,0,1-4.109,3.156h-9.454a4.251,4.251,0,0,1-4.108-5.346l8.881-33.337a4.251,4.251,0,0,1,4.108-3.158h10.4a4.254,4.254,0,0,1,4,2.8l.595-.9a4.253,4.253,0,0,1,3.544-1.9h10.4a4.253,4.253,0,0,1,4.108,5.347L349.3,58.779a4.25,4.25,0,0,1-4.108,3.157Z"/><path class="cls-2" d="M349.491,61.936a4.253,4.253,0,0,1-4.109-5.347l11.03-41.384a4.251,4.251,0,0,1,4.108-3.156h29.365c6.916,0,9.38,4.259,9.38,8.246a13.451,13.451,0,0,1-.486,3.422L393.391,43.84a8.491,8.491,0,0,1-8.605,6.6H374.445l-2.224,8.339a4.252,4.252,0,0,1-4.108,3.156ZM370.777,33.2a3.927,3.927,0,0,0-2.422,1,4.524,4.524,0,0,0-1.693,2.461,2.976,2.976,0,0,0-.114.74.427.427,0,0,0,.079.311.928.928,0,0,0,.117.145,1.3,1.3,0,0,0,.48.062,3.936,3.936,0,0,0,2.422-1,4.539,4.539,0,0,0,1.693-2.46,2.988,2.988,0,0,0,.114-.741.679.679,0,0,0-.087-.385C371.3,33.26,371.192,33.2,370.777,33.2Z"/><path class="cls-2" d="M394.9,61.936c-6.246,0-8.463-4.04-8.463-7.5a11.685,11.685,0,0,1,.433-3.034L393,28.425A10.546,10.546,0,0,1,403.78,20.1h18.336c6.246,0,8.463,4.04,8.463,7.5a11.767,11.767,0,0,1-.432,3.029l-6.1,22.978c-1.438,5.305-5.378,8.334-10.813,8.334ZM410.23,36.778a3.239,3.239,0,0,0-.693.437,2.872,2.872,0,0,0-.908,1.136,3.164,3.164,0,0,0,.708-.441A2.683,2.683,0,0,0,410.23,36.778Z"/><path class="cls-2" d="M447.211,61.936a4.252,4.252,0,0,1-3.753-2.253l-1.051-1.974-.282,1.064a4.252,4.252,0,0,1-4.11,3.163H422.831a4.251,4.251,0,0,1-4.108-5.346L427.6,23.253a4.252,4.252,0,0,1,4.108-3.158h23.636c6.246,0,8.463,4.04,8.463,7.5a11.767,11.767,0,0,1-.432,3.029l-4.3,16.087a8.047,8.047,0,0,1-3.023,4.556l2.353,4.418a4.251,4.251,0,0,1-3.752,6.251Zm-7.8-22.857a3.344,3.344,0,0,0-.709.445,2.69,2.69,0,0,0-.891,1.129,3.137,3.137,0,0,0,.691-.434A2.859,2.859,0,0,0,439.412,39.079Z"/><path class="cls-2" d="M464.659,61.936a4.253,4.253,0,0,1-4.109-5.348l2.869-10.745h-3.632a4.252,4.252,0,0,1-4.109-5.345l4.584-17.243a4.252,4.252,0,0,1,4.109-3.16h28.936a4.252,4.252,0,0,1,4.109,5.345l-4.584,17.243a4.251,4.251,0,0,1-4.109,3.16h-5.9l-3.454,12.938a4.253,4.253,0,0,1-4.109,3.155Z"/><path class="cls-2" d="M507.086,61.936A4.255,4.255,0,0,1,503.2,59.42a4.251,4.251,0,0,1-3.881,2.516h-10.6a4.251,4.251,0,0,1-4.108-5.346L493.5,23.253A4.251,4.251,0,0,1,497.6,20.1H521.24c6.246,0,8.463,4.04,8.463,7.5a11.767,11.767,0,0,1-.432,3.029l-7.5,28.155a4.251,4.251,0,0,1-4.108,3.157Zm2.268-25.158a3.239,3.239,0,0,0-.693.437,2.872,2.872,0,0,0-.908,1.136,3.164,3.164,0,0,0,.708-.441A2.683,2.683,0,0,0,509.354,36.778Z"/><path class="cls-2" d="M527.255,61.936c-6.246,0-8.463-4.04-8.463-7.5a11.728,11.728,0,0,1,.433-3.034l7.5-28.15a4.252,4.252,0,0,1,4.108-3.158H550.6a4.253,4.253,0,0,1,4.108,5.347l-3.475,13.046h3.635a4.253,4.253,0,0,1,4.107,5.354l-3.237,12.07a7.72,7.72,0,0,1-7.86,6.024Z"/><path class="cls-3" d="M54.093,51.333q-1.69,6.352-8.137,6.351H16.592L27.621,16.3H57.015q5.1,0,5.1,3.994a9.165,9.165,0,0,1-.344,2.328ZM43.02,37.381a8.775,8.775,0,0,0,3.166-4.7,7.225,7.225,0,0,0,.258-1.839,4.78,4.78,0,0,0-.917-2.875,4.72,4.72,0,0,0-4.04-1.9,8,8,0,0,0-5.042,1.911,8.794,8.794,0,0,0-3.151,4.7,7.213,7.213,0,0,0-.258,1.839,4.729,4.729,0,0,0,4.928,4.771A8.058,8.058,0,0,0,43.02,37.381Z"/><path class="cls-3" d="M91.365,40.441H82.77l-1.976,7.472H95.118l-2.607,9.771H56.7L67.73,16.3l35.839-.029-2.636,9.8H86.609l-1.976,7.472H93.2Z"/><path class="cls-3" d="M132.62,57.684H96.808l3.381-12.645H136Zm1.146-44.545a7.876,7.876,0,0,1,6.789,3.133,7.722,7.722,0,0,1,1.519,4.684,10.86,10.86,0,0,1-.4,2.817,14.775,14.775,0,0,1-5.071,7.558L118.152,44.752,106.864,31.331a8.373,8.373,0,0,1-1.4-4.713,11,11,0,0,1,.4-2.845,14.164,14.164,0,0,1,5.129-7.5,13.37,13.37,0,0,1,8.451-3.133,8.138,8.138,0,0,1,6.446,2.673v.029A13.111,13.111,0,0,1,133.766,13.139Z"/><path class="cls-3" d="M165.222,42.855l-4.756,6.208h-6.7l-1.432-6.208-3.954,14.829H136.917L147.947,16.3h12.691l.974,7.184h4.7l4.756-7.184h12.692l-11.03,41.383h-11.46Z"/><path class="cls-4" d="M177.025,57.684,188.083,16.3h35.783L219.741,31.82H205.416l-2,7.472H216.3l-2.235,8.334H201.176l-2.664,10.058Z"/><path class="cls-4" d="M222.433,57.684q-4.21,0-4.211-3.247a7.475,7.475,0,0,1,.287-1.926L224.64,29.52q1.375-5.172,6.675-5.173H249.65q4.21,0,4.211,3.248a7.457,7.457,0,0,1-.286,1.925l-6.1,22.991q-1.4,5.173-6.7,5.173Zm17.075-16.438a6.805,6.805,0,0,0,2.464-3.679,5.9,5.9,0,0,0,.2-1.465,3.755,3.755,0,0,0-.688-2.213,3.707,3.707,0,0,0-3.151-1.5,6.205,6.205,0,0,0-3.911,1.5,7,7,0,0,0-2.478,3.678,5.529,5.529,0,0,0-.2,1.437,3.69,3.69,0,0,0,.716,2.242,3.627,3.627,0,0,0,3.122,1.494A6.261,6.261,0,0,0,239.508,41.246Z"/><path class="cls-4" d="M269.847,48.488h-1.862l-2.435,9.2H250.366l8.881-33.337h23.635q4.212,0,4.212,3.248a7.462,7.462,0,0,1-.287,1.925l-4.3,16.094a3.554,3.554,0,0,1-3.782,2.874H277.3l4.9,9.2h-7.449Zm-1.16-4.943a7,7,0,0,0,2.478-3.679,5.569,5.569,0,0,0,.2-1.437,3.7,3.7,0,0,0-.717-2.241,3.628,3.628,0,0,0-3.122-1.494,6.259,6.259,0,0,0-3.925,1.494,6.807,6.807,0,0,0-2.464,3.678,5.859,5.859,0,0,0-.2,1.466,3.68,3.68,0,0,0,3.839,3.707A6.206,6.206,0,0,0,268.687,43.545Z"/><path class="cls-4" d="M320.842,24.347l-7.506,28.164q-1.376,5.173-6.675,5.173H288.326q-4.212,0-4.212-3.247a7.432,7.432,0,0,1,.287-1.926l7.506-28.164h10.6l-1.834,6.9h7.736l1.862-6.9Z"/><path class="cls-4" d="M338.776,46.3l-3.438,4.483h-5.557L328.749,46.3l-3.037,11.38h-9.454l8.881-33.337h10.4l.774,5.748h3.553l3.81-5.748h10.4l-8.881,33.337H335.74Z"/><path class="cls-3" d="M384.786,46.189H371.178l-3.065,11.495H349.491L360.52,16.3h29.365q5.128,0,5.128,3.994a9.121,9.121,0,0,1-.344,2.328L389.284,42.74A4.232,4.232,0,0,1,384.786,46.189Zm-12.5-5.935a8.777,8.777,0,0,0,3.166-4.7,7.2,7.2,0,0,0,.257-1.839,4.876,4.876,0,0,0-.888-2.873,4.718,4.718,0,0,0-4.039-1.9,8.056,8.056,0,0,0-5.057,1.911,8.773,8.773,0,0,0-3.166,4.7,7.226,7.226,0,0,0-.258,1.84,4.728,4.728,0,0,0,4.928,4.77A8.057,8.057,0,0,0,372.281,40.254Z"/><path class="cls-3" d="M394.9,57.684q-4.212,0-4.211-3.247a7.47,7.47,0,0,1,.286-1.926l6.131-22.991q1.375-5.172,6.675-5.173h18.336q4.211,0,4.211,3.248a7.462,7.462,0,0,1-.287,1.925l-6.1,22.991q-1.4,5.173-6.7,5.173Zm17.075-16.438a6.816,6.816,0,0,0,2.464-3.679,5.9,5.9,0,0,0,.2-1.465,3.754,3.754,0,0,0-.687-2.213,3.709,3.709,0,0,0-3.152-1.5,6.207,6.207,0,0,0-3.911,1.5,7,7,0,0,0-2.477,3.678,5.534,5.534,0,0,0-.2,1.437,3.7,3.7,0,0,0,.717,2.242,3.63,3.63,0,0,0,3.123,1.494A6.263,6.263,0,0,0,411.974,41.246Z"/><path class="cls-3" d="M442.313,48.488h-1.862l-2.436,9.2H422.831l8.881-33.337h23.636q4.212,0,4.211,3.248a7.5,7.5,0,0,1-.286,1.925l-4.3,16.094a3.554,3.554,0,0,1-3.781,2.874h-1.433l4.9,9.2h-7.45Zm-1.161-4.943a7,7,0,0,0,2.478-3.679,5.523,5.523,0,0,0,.2-1.437,3.7,3.7,0,0,0-.715-2.241,3.63,3.63,0,0,0-3.123-1.494,6.261,6.261,0,0,0-3.925,1.494,6.807,6.807,0,0,0-2.464,3.678,5.856,5.856,0,0,0-.2,1.466,3.678,3.678,0,0,0,3.839,3.707A6.2,6.2,0,0,0,441.152,43.545Z"/><path class="cls-3" d="M464.659,57.684l4.3-16.093h-9.168l4.584-17.244h28.936l-4.584,17.244h-9.168l-4.3,16.093Z"/><path class="cls-3" d="M507.086,57.684l1.806-6.9h-7.735l-1.834,6.9h-10.6L497.6,24.347H521.24q4.211,0,4.211,3.248a7.462,7.462,0,0,1-.287,1.925l-7.5,28.164ZM511.1,41.246a6.816,6.816,0,0,0,2.464-3.679,5.9,5.9,0,0,0,.2-1.465,3.754,3.754,0,0,0-.687-2.213,3.709,3.709,0,0,0-3.152-1.5,6.207,6.207,0,0,0-3.911,1.5,7,7,0,0,0-2.477,3.678,5.534,5.534,0,0,0-.2,1.437,3.7,3.7,0,0,0,.717,2.242,3.63,3.63,0,0,0,3.123,1.494A6.263,6.263,0,0,0,511.1,41.246Z"/><path class="cls-3" d="M527.255,57.684q-4.211,0-4.211-3.247a7.47,7.47,0,0,1,.286-1.926l7.506-28.164H550.6l-4.441,16.669a2.594,2.594,0,0,0-.114.69q0,1.034,1.232,1.034h7.591l-3.237,12.07a3.51,3.51,0,0,1-3.753,2.874Z"/></g><g id="レイヤー_1のコピー" data-name="レイヤー 1のコピー"><path class="cls-1" d="M17.179,71.689A11.338,11.338,0,0,1,6.223,57.43l11.03-41.384A11.352,11.352,0,0,1,28.209,7.627H57.6a19.436,19.436,0,0,1,6.2.949,11.32,11.32,0,0,1,4.507-.949L104.157,7.6a11.3,11.3,0,0,1,3.216.468,23.939,23.939,0,0,1,12.655-3.6,21.019,21.019,0,0,1,7,1.15,23.761,23.761,0,0,1,7.328-1.15,19.63,19.63,0,0,1,11.568,3.471,11.236,11.236,0,0,1,2.613-.31h12.692a11.32,11.32,0,0,1,5.207,1.27,11.327,11.327,0,0,1,5.221-1.27h12.691a11.149,11.149,0,0,1,2.173.214,10.993,10.993,0,0,1,2.153-.214h35.783a11.407,11.407,0,0,1,8.989,4.429,11.292,11.292,0,0,1,1.853,3.618h14.941a18.037,18.037,0,0,1,5.446.8,11.23,11.23,0,0,1,4.151-.8H283.47a18.279,18.279,0,0,1,5.126.7,11.293,11.293,0,0,1,3.9-.7h10.6a11.341,11.341,0,0,1,3.882.682,11.335,11.335,0,0,1,3.881-.682h10.571a11.15,11.15,0,0,1,2.158.211,11.01,11.01,0,0,1,2.139-.211h10.4a11.329,11.329,0,0,1,4.068.761,11.329,11.329,0,0,1,4.068-.761h6a11.353,11.353,0,0,1,10.85-8.047h29.365c7.77,0,12.4,3.689,14.684,8.047H422.7a18.035,18.035,0,0,1,5.445.8,11.235,11.235,0,0,1,4.152-.8h23.635a18.267,18.267,0,0,1,5.125.7,11.3,11.3,0,0,1,3.9-.7h28.935a11.15,11.15,0,0,1,2.158.211,11.01,11.01,0,0,1,2.139-.211h23.637a18.035,18.035,0,0,1,5.445.8,11.229,11.229,0,0,1,4.15-.8h19.768a11.34,11.34,0,0,1,10.957,14.257L560.7,35.36a11.315,11.315,0,0,1,5.71,12.985l-3.239,12.069a14.781,14.781,0,0,1-14.7,11.275Z"/><path class="cls-1" d="M548.471,66.019a9.172,9.172,0,0,0,9.227-7.074l3.238-12.07a5.669,5.669,0,0,0-5.475-7.138H553.67l3-11.265a5.671,5.671,0,0,0-5.479-7.128H531.424a5.644,5.644,0,0,0-3.78,1.468,11.039,11.039,0,0,0-5.816-1.468H498.191a5.512,5.512,0,0,1-4.3,0H464.959a5.653,5.653,0,0,0-3.555,1.264,11.272,11.272,0,0,0-5.469-1.264H432.3a5.645,5.645,0,0,0-3.781,1.469,11.031,11.031,0,0,0-5.817-1.469H404.367a14.659,14.659,0,0,0-3.183.339c-.5-4.117-3.494-8.386-10.711-8.386H361.107a5.669,5.669,0,0,0-5.478,4.209l-1.022,3.838H344.263a5.668,5.668,0,0,0-4.069,1.721,5.66,5.66,0,0,0-4.068-1.721h-10.4a5.643,5.643,0,0,0-2.138.436,5.661,5.661,0,0,0-2.158-.436H310.858a5.666,5.666,0,0,0-3.882,1.537,5.668,5.668,0,0,0-3.881-1.537h-10.6a5.65,5.65,0,0,0-3.554,1.264,11.279,11.279,0,0,0-5.47-1.264H259.834a5.645,5.645,0,0,0-3.78,1.469,11.031,11.031,0,0,0-5.817-1.469H231.9a15.144,15.144,0,0,0-2.258.166l.289-1.087a5.67,5.67,0,0,0-5.48-7.126H188.671a5.625,5.625,0,0,0-2.153.443,5.641,5.641,0,0,0-2.173-.443H171.654a5.67,5.67,0,0,0-4.728,2.54l-.53.8a5.673,5.673,0,0,0-5.171-3.342H148.534a5.644,5.644,0,0,0-3.607,1.312,13.5,13.5,0,0,0-10.574-4.473,18.132,18.132,0,0,0-7.448,1.589,14.774,14.774,0,0,0-6.877-1.589,18.963,18.963,0,0,0-11.972,4.358c-.067.053-.126.11-.192.163a5.664,5.664,0,0,0-3.707-1.389L68.313,13.3a5.66,5.66,0,0,0-4.062,1.728A12.007,12.007,0,0,0,57.6,13.3H28.209a5.668,5.668,0,0,0-5.478,4.209L11.7,58.89a5.668,5.668,0,0,0,5.478,7.129Z"/><path class="cls-2" d="M16.592,61.936a4.252,4.252,0,0,1-4.109-5.347l11.03-41.384a4.252,4.252,0,0,1,4.108-3.156H57.015c6.895,0,9.352,4.259,9.352,8.246a13.256,13.256,0,0,1-.487,3.42L58.2,52.432c-1.63,6.127-5.979,9.5-12.244,9.5Zm24.9-31.612a3.707,3.707,0,0,0-2.4.989A4.553,4.553,0,0,0,37.4,33.78a2.946,2.946,0,0,0-.114.741.421.421,0,0,0,.078.31,1,1,0,0,0,.117.147,1.305,1.305,0,0,0,.481.062,3.931,3.931,0,0,0,2.421-1,4.54,4.54,0,0,0,1.694-2.461,3.022,3.022,0,0,0,.113-.74.54.54,0,0,0-.108-.379C42.046,30.412,41.98,30.324,41.487,30.324Z"/><path class="cls-2" d="M56.7,61.936a4.252,4.252,0,0,1-4.108-5.347L63.621,15.205a4.251,4.251,0,0,1,4.1-3.156l35.843-.029a4.25,4.25,0,0,1,4.106,5.356l-2.636,9.8a4.252,4.252,0,0,1-4.106,3.148H95.976a4.205,4.205,0,0,1,.593.628,4.252,4.252,0,0,1,.739,3.684l-1.833,6.9a4.251,4.251,0,0,1-1.333,2.128h.976a4.252,4.252,0,0,1,4.108,5.348L96.62,58.78a4.254,4.254,0,0,1-4.109,3.156Z"/><path class="cls-2" d="M96.808,61.936a4.251,4.251,0,0,1-4.107-5.35l3.38-12.645a4.253,4.253,0,0,1,4.108-3.154h9.073l-5.652-6.719a4.156,4.156,0,0,1-.294-.394,12.588,12.588,0,0,1-2.108-7.056,15.247,15.247,0,0,1,.547-3.948,18.386,18.386,0,0,1,6.594-9.731,17.583,17.583,0,0,1,11.092-4.052,13.158,13.158,0,0,1,6.819,1.766,16.794,16.794,0,0,1,7.506-1.766,12.008,12.008,0,0,1,12.56,12.069,15.164,15.164,0,0,1-.547,3.92,19.006,19.006,0,0,1-6.453,9.719c-.072.06-.147.119-.223.174l-8.273,6.018H136a4.253,4.253,0,0,1,4.108,5.35l-3.381,12.645a4.251,4.251,0,0,1-4.107,3.154Z"/><path class="cls-2" d="M161.268,61.936a4.252,4.252,0,0,1-4.108-5.347l.873-3.274h-4.091l-1.457,5.465a4.252,4.252,0,0,1-4.109,3.156H136.917a4.252,4.252,0,0,1-4.109-5.347l11.03-41.384a4.252,4.252,0,0,1,4.109-3.156h12.691a4.25,4.25,0,0,1,4.213,3.68l.254,1.873,2.416-3.649a4.252,4.252,0,0,1,3.545-1.9h12.692a4.252,4.252,0,0,1,4.108,5.347L176.836,58.78a4.251,4.251,0,0,1-4.108,3.156Z"/><path class="cls-2" d="M177.025,61.936a4.252,4.252,0,0,1-4.108-5.349L183.975,15.2a4.253,4.253,0,0,1,4.108-3.154h35.783a4.251,4.251,0,0,1,4.109,5.344L223.85,32.912a4.252,4.252,0,0,1-4.109,3.16h-.662a4.247,4.247,0,0,1,1.331,4.321l-2.235,8.334a4.252,4.252,0,0,1-4.107,3.151h-9.619l-1.827,6.9a4.251,4.251,0,0,1-4.11,3.163Z"/><path class="cls-2" d="M222.433,61.936c-6.247,0-8.463-4.04-8.463-7.5a11.735,11.735,0,0,1,.433-3.031l6.128-22.981a10.546,10.546,0,0,1,10.784-8.33H249.65c6.247,0,8.463,4.04,8.463,7.5a11.706,11.706,0,0,1-.433,3.032l-6.1,22.975c-1.44,5.305-5.378,8.334-10.813,8.334Zm15.332-25.158a3.237,3.237,0,0,0-.692.437,2.864,2.864,0,0,0-.909,1.136,3.212,3.212,0,0,0,.707-.44A2.7,2.7,0,0,0,237.765,36.778Z"/><path class="cls-2" d="M274.746,61.936a4.252,4.252,0,0,1-3.753-2.253l-1.051-1.974-.282,1.064a4.252,4.252,0,0,1-4.11,3.163H250.366a4.253,4.253,0,0,1-4.109-5.346l8.881-33.337a4.252,4.252,0,0,1,4.109-3.158h23.635c6.247,0,8.464,4.04,8.464,7.5a11.706,11.706,0,0,1-.434,3.034l-4.293,16.082a8.066,8.066,0,0,1-3.025,4.556l2.354,4.418a4.252,4.252,0,0,1-3.753,6.251Zm-7.8-22.857a3.32,3.32,0,0,0-.709.445,2.683,2.683,0,0,0-.892,1.128,3.1,3.1,0,0,0,.691-.433A2.87,2.87,0,0,0,266.948,39.079Z"/><path class="cls-2" d="M288.326,61.936c-6.247,0-8.464-4.04-8.464-7.5A11.717,11.717,0,0,1,280.3,51.4l7.5-28.15a4.252,4.252,0,0,1,4.109-3.158h10.6a4.255,4.255,0,0,1,3.882,2.517,4.253,4.253,0,0,1,3.882-2.517h10.571a4.254,4.254,0,0,1,4.109,5.347l-7.506,28.164a10.545,10.545,0,0,1-10.784,8.33Z"/><path class="cls-2" d="M335.74,61.936a4.252,4.252,0,0,1-4.109-5.348l.413-1.549h-1.225l-1,3.741a4.252,4.252,0,0,1-4.109,3.156h-9.454a4.251,4.251,0,0,1-4.108-5.346l8.881-33.337a4.251,4.251,0,0,1,4.108-3.158h10.4a4.254,4.254,0,0,1,4,2.8l.595-.9a4.253,4.253,0,0,1,3.544-1.9h10.4a4.253,4.253,0,0,1,4.108,5.347L349.3,58.779a4.25,4.25,0,0,1-4.108,3.157Z"/><path class="cls-2" d="M349.491,61.936a4.253,4.253,0,0,1-4.109-5.347l11.03-41.384a4.251,4.251,0,0,1,4.108-3.156h29.365c6.916,0,9.38,4.259,9.38,8.246a13.451,13.451,0,0,1-.486,3.422L393.391,43.84a8.491,8.491,0,0,1-8.605,6.6H374.445l-2.224,8.339a4.252,4.252,0,0,1-4.108,3.156ZM370.777,33.2a3.927,3.927,0,0,0-2.422,1,4.524,4.524,0,0,0-1.693,2.461,2.976,2.976,0,0,0-.114.74.427.427,0,0,0,.079.311.928.928,0,0,0,.117.145,1.3,1.3,0,0,0,.48.062,3.936,3.936,0,0,0,2.422-1,4.539,4.539,0,0,0,1.693-2.46,2.988,2.988,0,0,0,.114-.741.679.679,0,0,0-.087-.385C371.3,33.26,371.192,33.2,370.777,33.2Z"/><path class="cls-2" d="M394.9,61.936c-6.246,0-8.463-4.04-8.463-7.5a11.685,11.685,0,0,1,.433-3.034L393,28.425A10.546,10.546,0,0,1,403.78,20.1h18.336c6.246,0,8.463,4.04,8.463,7.5a11.767,11.767,0,0,1-.432,3.029l-6.1,22.978c-1.438,5.305-5.378,8.334-10.813,8.334ZM410.23,36.778a3.239,3.239,0,0,0-.693.437,2.872,2.872,0,0,0-.908,1.136,3.164,3.164,0,0,0,.708-.441A2.683,2.683,0,0,0,410.23,36.778Z"/><path class="cls-2" d="M447.211,61.936a4.252,4.252,0,0,1-3.753-2.253l-1.051-1.974-.282,1.064a4.252,4.252,0,0,1-4.11,3.163H422.831a4.251,4.251,0,0,1-4.108-5.346L427.6,23.253a4.252,4.252,0,0,1,4.108-3.158h23.636c6.246,0,8.463,4.04,8.463,7.5a11.767,11.767,0,0,1-.432,3.029l-4.3,16.087a8.047,8.047,0,0,1-3.023,4.556l2.353,4.418a4.251,4.251,0,0,1-3.752,6.251Zm-7.8-22.857a3.344,3.344,0,0,0-.709.445,2.69,2.69,0,0,0-.891,1.129,3.137,3.137,0,0,0,.691-.434A2.859,2.859,0,0,0,439.412,39.079Z"/><path class="cls-2" d="M464.659,61.936a4.253,4.253,0,0,1-4.109-5.348l2.869-10.745h-3.632a4.252,4.252,0,0,1-4.109-5.345l4.584-17.243a4.252,4.252,0,0,1,4.109-3.16h28.936a4.252,4.252,0,0,1,4.109,5.345l-4.584,17.243a4.251,4.251,0,0,1-4.109,3.16h-5.9l-3.454,12.938a4.253,4.253,0,0,1-4.109,3.155Z"/><path class="cls-2" d="M507.086,61.936A4.255,4.255,0,0,1,503.2,59.42a4.251,4.251,0,0,1-3.881,2.516h-10.6a4.251,4.251,0,0,1-4.108-5.346L493.5,23.253A4.251,4.251,0,0,1,497.6,20.1H521.24c6.246,0,8.463,4.04,8.463,7.5a11.767,11.767,0,0,1-.432,3.029l-7.5,28.155a4.251,4.251,0,0,1-4.108,3.157Zm2.268-25.158a3.239,3.239,0,0,0-.693.437,2.872,2.872,0,0,0-.908,1.136,3.164,3.164,0,0,0,.708-.441A2.683,2.683,0,0,0,509.354,36.778Z"/><path class="cls-2" d="M527.255,61.936c-6.246,0-8.463-4.04-8.463-7.5a11.728,11.728,0,0,1,.433-3.034l7.5-28.15a4.252,4.252,0,0,1,4.108-3.158H550.6a4.253,4.253,0,0,1,4.108,5.347l-3.475,13.046h3.635a4.253,4.253,0,0,1,4.107,5.354l-3.237,12.07a7.72,7.72,0,0,1-7.86,6.024Z"/><path class="cls-3" d="M54.093,51.333q-1.69,6.352-8.137,6.351H16.592L27.621,16.3H57.015q5.1,0,5.1,3.994a9.165,9.165,0,0,1-.344,2.328ZM43.02,37.381a8.775,8.775,0,0,0,3.166-4.7,7.225,7.225,0,0,0,.258-1.839,4.78,4.78,0,0,0-.917-2.875,4.72,4.72,0,0,0-4.04-1.9,8,8,0,0,0-5.042,1.911,8.794,8.794,0,0,0-3.151,4.7,7.213,7.213,0,0,0-.258,1.839,4.729,4.729,0,0,0,4.928,4.771A8.058,8.058,0,0,0,43.02,37.381Z"/><path class="cls-3" d="M91.365,40.441H82.77l-1.976,7.472H95.118l-2.607,9.771H56.7L67.73,16.3l35.839-.029-2.636,9.8H86.609l-1.976,7.472H93.2Z"/><path class="cls-3" d="M132.62,57.684H96.808l3.381-12.645H136Zm1.146-44.545a7.876,7.876,0,0,1,6.789,3.133,7.722,7.722,0,0,1,1.519,4.684,10.86,10.86,0,0,1-.4,2.817,14.775,14.775,0,0,1-5.071,7.558L118.152,44.752,106.864,31.331a8.373,8.373,0,0,1-1.4-4.713,11,11,0,0,1,.4-2.845,14.164,14.164,0,0,1,5.129-7.5,13.37,13.37,0,0,1,8.451-3.133,8.138,8.138,0,0,1,6.446,2.673v.029A13.111,13.111,0,0,1,133.766,13.139Z"/><path class="cls-3" d="M165.222,42.855l-4.756,6.208h-6.7l-1.432-6.208-3.954,14.829H136.917L147.947,16.3h12.691l.974,7.184h4.7l4.756-7.184h12.692l-11.03,41.383h-11.46Z"/><path class="cls-4" d="M177.025,57.684,188.083,16.3h35.783L219.741,31.82H205.416l-2,7.472H216.3l-2.235,8.334H201.176l-2.664,10.058Z"/><path class="cls-4" d="M222.433,57.684q-4.21,0-4.211-3.247a7.475,7.475,0,0,1,.287-1.926L224.64,29.52q1.375-5.172,6.675-5.173H249.65q4.21,0,4.211,3.248a7.457,7.457,0,0,1-.286,1.925l-6.1,22.991q-1.4,5.173-6.7,5.173Zm17.075-16.438a6.805,6.805,0,0,0,2.464-3.679,5.9,5.9,0,0,0,.2-1.465,3.755,3.755,0,0,0-.688-2.213,3.707,3.707,0,0,0-3.151-1.5,6.205,6.205,0,0,0-3.911,1.5,7,7,0,0,0-2.478,3.678,5.529,5.529,0,0,0-.2,1.437,3.69,3.69,0,0,0,.716,2.242,3.627,3.627,0,0,0,3.122,1.494A6.261,6.261,0,0,0,239.508,41.246Z"/><path class="cls-4" d="M269.847,48.488h-1.862l-2.435,9.2H250.366l8.881-33.337h23.635q4.212,0,4.212,3.248a7.462,7.462,0,0,1-.287,1.925l-4.3,16.094a3.554,3.554,0,0,1-3.782,2.874H277.3l4.9,9.2h-7.449Zm-1.16-4.943a7,7,0,0,0,2.478-3.679,5.569,5.569,0,0,0,.2-1.437,3.7,3.7,0,0,0-.717-2.241,3.628,3.628,0,0,0-3.122-1.494,6.259,6.259,0,0,0-3.925,1.494,6.807,6.807,0,0,0-2.464,3.678,5.859,5.859,0,0,0-.2,1.466,3.68,3.68,0,0,0,3.839,3.707A6.206,6.206,0,0,0,268.687,43.545Z"/><path class="cls-4" d="M320.842,24.347l-7.506,28.164q-1.376,5.173-6.675,5.173H288.326q-4.212,0-4.212-3.247a7.432,7.432,0,0,1,.287-1.926l7.506-28.164h10.6l-1.834,6.9h7.736l1.862-6.9Z"/><path class="cls-4" d="M338.776,46.3l-3.438,4.483h-5.557L328.749,46.3l-3.037,11.38h-9.454l8.881-33.337h10.4l.774,5.748h3.553l3.81-5.748h10.4l-8.881,33.337H335.74Z"/><path class="cls-3" d="M384.786,46.189H371.178l-3.065,11.495H349.491L360.52,16.3h29.365q5.128,0,5.128,3.994a9.121,9.121,0,0,1-.344,2.328L389.284,42.74A4.232,4.232,0,0,1,384.786,46.189Zm-12.5-5.935a8.777,8.777,0,0,0,3.166-4.7,7.2,7.2,0,0,0,.257-1.839,4.876,4.876,0,0,0-.888-2.873,4.718,4.718,0,0,0-4.039-1.9,8.056,8.056,0,0,0-5.057,1.911,8.773,8.773,0,0,0-3.166,4.7,7.226,7.226,0,0,0-.258,1.84,4.728,4.728,0,0,0,4.928,4.77A8.057,8.057,0,0,0,372.281,40.254Z"/><path class="cls-3" d="M394.9,57.684q-4.212,0-4.211-3.247a7.47,7.47,0,0,1,.286-1.926l6.131-22.991q1.375-5.172,6.675-5.173h18.336q4.211,0,4.211,3.248a7.462,7.462,0,0,1-.287,1.925l-6.1,22.991q-1.4,5.173-6.7,5.173Zm17.075-16.438a6.816,6.816,0,0,0,2.464-3.679,5.9,5.9,0,0,0,.2-1.465,3.754,3.754,0,0,0-.687-2.213,3.709,3.709,0,0,0-3.152-1.5,6.207,6.207,0,0,0-3.911,1.5,7,7,0,0,0-2.477,3.678,5.534,5.534,0,0,0-.2,1.437,3.7,3.7,0,0,0,.717,2.242,3.63,3.63,0,0,0,3.123,1.494A6.263,6.263,0,0,0,411.974,41.246Z"/><path class="cls-3" d="M442.313,48.488h-1.862l-2.436,9.2H422.831l8.881-33.337h23.636q4.212,0,4.211,3.248a7.5,7.5,0,0,1-.286,1.925l-4.3,16.094a3.554,3.554,0,0,1-3.781,2.874h-1.433l4.9,9.2h-7.45Zm-1.161-4.943a7,7,0,0,0,2.478-3.679,5.523,5.523,0,0,0,.2-1.437,3.7,3.7,0,0,0-.715-2.241,3.63,3.63,0,0,0-3.123-1.494,6.261,6.261,0,0,0-3.925,1.494,6.807,6.807,0,0,0-2.464,3.678,5.856,5.856,0,0,0-.2,1.466,3.678,3.678,0,0,0,3.839,3.707A6.2,6.2,0,0,0,441.152,43.545Z"/><path class="cls-3" d="M464.659,57.684l4.3-16.093h-9.168l4.584-17.244h28.936l-4.584,17.244h-9.168l-4.3,16.093Z"/><path class="cls-3" d="M507.086,57.684l1.806-6.9h-7.735l-1.834,6.9h-10.6L497.6,24.347H521.24q4.211,0,4.211,3.248a7.462,7.462,0,0,1-.287,1.925l-7.5,28.164ZM511.1,41.246a6.816,6.816,0,0,0,2.464-3.679,5.9,5.9,0,0,0,.2-1.465,3.754,3.754,0,0,0-.687-2.213,3.709,3.709,0,0,0-3.152-1.5,6.207,6.207,0,0,0-3.911,1.5,7,7,0,0,0-2.477,3.678,5.534,5.534,0,0,0-.2,1.437,3.7,3.7,0,0,0,.717,2.242,3.63,3.63,0,0,0,3.123,1.494A6.263,6.263,0,0,0,511.1,41.246Z"/><path class="cls-3" d="M527.255,57.684q-4.211,0-4.211-3.247a7.47,7.47,0,0,1,.286-1.926l7.506-28.164H550.6l-4.441,16.669a2.594,2.594,0,0,0-.114.69q0,1.034,1.232,1.034h7.591l-3.237,12.07a3.51,3.51,0,0,1-3.753,2.874Z"/></g></svg>